<svg width="123" height="23" viewBox="0 0 123 23" fill="none" xmlns="http://www.w3.org/2000/svg">
<path d="M1.17 17.65L1.19733 17.1507L0.67 17.1219V17.65H1.17ZM13.38 17.71L13.0264 17.3564L13.0264 17.3564L13.38 17.71ZM13.8 13.9H14.3V13.4H13.8V13.9ZM2.31 12.49L1.95267 12.8399L1.96019 12.8473L2.31 12.49ZM2.31 2.44L2.66355 2.79355L2.66355 2.79355L2.31 2.44ZM17.43 0.999999H17.93V0.499999H17.43V0.999999ZM17.43 5.2V5.7H17.93V5.2H17.43ZM17.82 20.92L17.4664 20.5664L17.4664 20.5664L17.82 20.92ZM10.26 22.24L10.2383 22.7395L10.2425 22.7397L10.26 22.24ZM7.5 22.12L7.47552 22.6194L7.47828 22.6195L7.5 22.12ZM1.17 21.7H0.67V22.1604L1.12886 22.1983L1.17 21.7ZM1.14267 18.1493C6.62099 18.4492 10.3443 18.6 12.3 18.6V17.6C10.3757 17.6 6.67901 17.4508 1.19733 17.1507L1.14267 18.1493ZM12.3 18.6C12.8575 18.6 13.3576 18.4396 13.7336 18.0636L13.0264 17.3564C12.8824 17.5004 12.6625 17.6 12.3 17.6V18.6ZM13.7336 18.0636C14.1225 17.6746 14.3 17.1694 14.3 16.6H13.3C13.3 16.9506 13.1975 17.1854 13.0264 17.3564L13.7336 18.0636ZM14.3 16.6V13.9H13.3V16.6H14.3ZM13.8 13.4H6.9V14.4H13.8V13.4ZM6.9 13.4C4.85946 13.4 3.48547 12.9412 2.65981 12.1327L1.96019 12.8473C3.05453 13.9188 4.74054 14.4 6.9 14.4V13.4ZM2.66726 12.1402C1.8588 11.3145 1.4 9.94054 1.4 7.9H0.4C0.4 10.0595 0.8812 11.7455 1.95274 12.8398L2.66726 12.1402ZM1.4 7.9V7H0.4V7.9H1.4ZM1.4 7C1.4 4.95823 1.85931 3.5978 2.66355 2.79355L1.95645 2.08645C0.880691 3.1622 0.4 4.84177 0.4 7H1.4ZM2.66355 2.79355C3.48943 1.96768 4.86184 1.5 6.9 1.5V0.499999C4.73816 0.499999 3.05057 0.992321 1.95645 2.08645L2.66355 2.79355ZM6.9 1.5H17.43V0.499999H6.9V1.5ZM16.93 0.999999V5.2H17.93V0.999999H16.93ZM17.43 4.7H8.1V5.7H17.43V4.7ZM8.1 4.7C7.42293 4.7 6.82329 4.86961 6.39645 5.29645C5.96961 5.72329 5.8 6.32293 5.8 7H6.8C6.8 6.47707 6.93039 6.17671 7.10355 6.00355C7.27671 5.83039 7.57707 5.7 8.1 5.7V4.7ZM5.8 7V7.6H6.8V7H5.8ZM5.8 7.6C5.8 8.27707 5.96961 8.87671 6.39645 9.30355C6.82329 9.73039 7.42293 9.9 8.1 9.9V8.9C7.57707 8.9 7.27671 8.76961 7.10355 8.59645C6.93039 8.42329 6.8 8.12293 6.8 7.6H5.8ZM8.1 9.9H13.5V8.9H8.1V9.9ZM13.5 9.9C15.3936 9.9 16.6785 10.3456 17.4664 11.1336L18.1736 10.4264C17.1215 9.37441 15.5264 8.9 13.5 8.9V9.9ZM17.4664 11.1336C18.2544 11.9215 18.7 13.2064 18.7 15.1H19.7C19.7 13.0736 19.2256 11.4785 18.1736 10.4264L17.4664 11.1336ZM18.7 15.1V16.6H19.7V15.1H18.7ZM18.7 16.6C18.7 18.4936 18.2544 19.7785 17.4664 20.5664L18.1736 21.2736C19.2256 20.2215 19.7 18.6264 19.7 16.6H18.7ZM17.4664 20.5664C16.6785 21.3544 15.3936 21.8 13.5 21.8V22.8C15.5264 22.8 17.1215 22.3256 18.1736 21.2736L17.4664 20.5664ZM13.5 21.8C12.4865 21.8 11.4124 21.7801 10.2775 21.7403L10.2425 22.7397C11.3876 22.7799 12.4735 22.8 13.5 22.8V21.8ZM10.2817 21.7405L7.52172 21.6205L7.47828 22.6195L10.2383 22.7395L10.2817 21.7405ZM7.52448 21.6206C5.49042 21.5209 3.38598 21.3813 1.21114 21.2017L1.12886 22.1983C3.31402 22.3787 5.42958 22.5191 7.47552 22.6194L7.52448 21.6206ZM1.67 21.7V17.65H0.67V21.7H1.67ZM39.2895 0.999999L39.7726 0.871167L39.6736 0.499999H39.2895V0.999999ZM42.8895 14.5L42.4063 14.6288L43.3764 14.6136L42.8895 14.5ZM46.0395 0.999999V0.499999H45.6427L45.5525 0.886384L46.0395 0.999999ZM51.8895 0.999999L52.372 1.13097L52.5433 0.499999H51.8895V0.999999ZM46.1895 22V22.5H46.5718L46.672 22.131L46.1895 22ZM40.4895 22L40.0075 22.133L40.1087 22.5H40.4895V22ZM36.8895 8.95L37.3714 8.81703L36.8895 7.0698L36.4075 8.81703L36.8895 8.95ZM33.2895 22V22.5H33.6702L33.7714 22.133L33.2895 22ZM27.5895 22L27.1069 22.131L27.2071 22.5H27.5895V22ZM21.8895 0.999999V0.499999H21.2356L21.4069 1.13097L21.8895 0.999999ZM27.7395 0.999999L28.2264 0.886384L28.1362 0.499999H27.7395V0.999999ZM30.8895 14.5L30.4025 14.6136L31.3726 14.6288L30.8895 14.5ZM34.4895 0.999999V0.499999H34.1053L34.0063 0.871167L34.4895 0.999999ZM38.8063 1.12883L42.4063 14.6288L43.3726 14.3712L39.7726 0.871167L38.8063 1.12883ZM43.3764 14.6136L46.5264 1.11361L45.5525 0.886384L42.4025 14.3864L43.3764 14.6136ZM46.0395 1.5H51.8895V0.499999H46.0395V1.5ZM51.4069 0.869023L45.7069 21.869L46.672 22.131L52.372 1.13097L51.4069 0.869023ZM46.1895 21.5H40.4895V22.5H46.1895V21.5ZM40.9714 21.867L37.3714 8.81703L36.4075 9.08296L40.0075 22.133L40.9714 21.867ZM36.4075 8.81703L32.8075 21.867L33.7714 22.133L37.3714 9.08296L36.4075 8.81703ZM33.2895 21.5H27.5895V22.5H33.2895V21.5ZM28.072 21.869L22.372 0.869023L21.4069 1.13097L27.1069 22.131L28.072 21.869ZM21.8895 1.5H27.7395V0.499999H21.8895V1.5ZM27.2525 1.11361L30.4025 14.6136L31.3764 14.3864L28.2264 0.886384L27.2525 1.11361ZM31.3726 14.6288L34.9726 1.12883L34.0063 0.871167L30.4063 14.3712L31.3726 14.6288ZM34.4895 1.5H39.2895V0.499999H34.4895V1.5ZM58.6594 22V22.5H59.0108L59.1298 22.1694L58.6594 22ZM52.8094 22L52.3418 21.823L52.0855 22.5H52.8094V22ZM60.7594 0.999999V0.499999H60.414L60.2918 0.822974L60.7594 0.999999ZM66.7594 0.999999L67.227 0.822974L67.1047 0.499999H66.7594V0.999999ZM74.7094 22V22.5H75.4333L75.177 21.823L74.7094 22ZM68.8594 22L68.3889 22.1694L68.508 22.5H68.8594V22ZM67.5094 18.25L67.9798 18.0806L67.8608 17.75H67.5094V18.25ZM60.0094 18.25V17.75H59.658L59.5389 18.0806L60.0094 18.25ZM61.3594 14.35L60.8861 14.1889L60.661 14.85H61.3594V14.35ZM66.1594 14.35V14.85H66.8578L66.6327 14.1889L66.1594 14.35ZM63.7594 7.3L64.2327 7.13887L63.7594 5.74848L63.2861 7.13887L63.7594 7.3ZM58.6594 21.5H52.8094V22.5H58.6594V21.5ZM53.277 22.177L61.227 1.17702L60.2918 0.822974L52.3418 21.823L53.277 22.177ZM60.7594 1.5H66.7594V0.499999H60.7594V1.5ZM66.2918 1.17702L74.2418 22.177L75.177 21.823L67.227 0.822974L66.2918 1.17702ZM74.7094 21.5H68.8594V22.5H74.7094V21.5ZM69.3298 21.8306L67.9798 18.0806L67.0389 18.4194L68.3889 22.1694L69.3298 21.8306ZM67.5094 17.75H60.0094V18.75H67.5094V17.75ZM59.5389 18.0806L58.1889 21.8306L59.1298 22.1694L60.4798 18.4194L59.5389 18.0806ZM61.3594 14.85H66.1594V13.85H61.3594V14.85ZM66.6327 14.1889L64.2327 7.13887L63.2861 7.46113L65.6861 14.5111L66.6327 14.1889ZM63.2861 7.13887L60.8861 14.1889L61.8327 14.5111L64.2327 7.46113L63.2861 7.13887ZM79.2082 0.999999V0.499999H78.7082V0.999999H79.2082ZM96.3682 2.44L96.0109 2.78989L96.0184 2.79725L96.3682 2.44ZM96.3682 14.59L96.7218 14.9436L96.7218 14.9436L96.3682 14.59ZM84.6082 16V15.5H84.1082V16H84.6082ZM84.6082 22V22.5H85.1082V22H84.6082ZM79.2082 22H78.7082V22.5H79.2082V22ZM84.6082 5.2V4.7H84.1082V5.2H84.6082ZM84.6082 11.8H84.1082V12.3H84.6082V11.8ZM79.2082 1.5H91.8082V0.499999H79.2082V1.5ZM91.8082 1.5C93.8476 1.5 95.2064 1.96817 96.0109 2.78981L96.7255 2.09019C95.65 0.991826 93.9689 0.499999 91.8082 0.499999V1.5ZM96.0184 2.79725C96.84 3.60178 97.3082 4.96065 97.3082 7H98.3082C98.3082 4.83935 97.8164 3.15822 96.718 2.08274L96.0184 2.79725ZM97.3082 7V10H98.3082V7H97.3082ZM97.3082 10C97.3082 12.0382 96.8405 13.4106 96.0147 14.2364L96.7218 14.9436C97.8159 13.8494 98.3082 12.1618 98.3082 10H97.3082ZM96.0147 14.2364C95.2104 15.0407 93.85 15.5 91.8082 15.5V16.5C93.9664 16.5 95.646 16.0193 96.7218 14.9436L96.0147 14.2364ZM91.8082 15.5H84.6082V16.5H91.8082V15.5ZM84.1082 16V22H85.1082V16H84.1082ZM84.6082 21.5H79.2082V22.5H84.6082V21.5ZM79.7082 22V0.999999H78.7082V22H79.7082ZM92.9082 7C92.9082 6.32293 92.7386 5.72329 92.3118 5.29645C91.8849 4.86961 91.2853 4.7 90.6082 4.7V5.7C91.1311 5.7 91.4315 5.83039 91.6046 6.00355C91.7778 6.17671 91.9082 6.47707 91.9082 7H92.9082ZM90.6082 4.7H84.6082V5.7H90.6082V4.7ZM84.1082 5.2V11.8H85.1082V5.2H84.1082ZM84.6082 12.3H90.6082V11.3H84.6082V12.3ZM90.6082 12.3C91.2853 12.3 91.8849 12.1304 92.3118 11.7036C92.7386 11.2767 92.9082 10.6771 92.9082 10H91.9082C91.9082 10.5229 91.7778 10.8233 91.6046 10.9964C91.4315 11.1696 91.1311 11.3 90.6082 11.3V12.3ZM92.9082 10V7H91.9082V10H92.9082ZM103.507 0.999999V0.499999H103.007V0.999999H103.507ZM120.667 2.44L120.31 2.78989L120.317 2.79725L120.667 2.44ZM120.667 14.59L121.021 14.9436L121.021 14.9436L120.667 14.59ZM108.907 16V15.5H108.407V16H108.907ZM108.907 22V22.5H109.407V22H108.907ZM103.507 22H103.007V22.5H103.507V22ZM108.907 5.2V4.7H108.407V5.2H108.907ZM108.907 11.8H108.407V12.3H108.907V11.8ZM103.507 1.5H116.107V0.499999H103.507V1.5ZM116.107 1.5C118.146 1.5 119.505 1.96817 120.31 2.78981L121.024 2.09019C119.949 0.991826 118.268 0.499999 116.107 0.499999V1.5ZM120.317 2.79725C121.139 3.60178 121.607 4.96065 121.607 7H122.607C122.607 4.83935 122.115 3.15822 121.017 2.08274L120.317 2.79725ZM121.607 7V10H122.607V7H121.607ZM121.607 10C121.607 12.0382 121.139 13.4106 120.313 14.2364L121.021 14.9436C122.115 13.8494 122.607 12.1618 122.607 10H121.607ZM120.313 14.2364C119.509 15.0407 118.149 15.5 116.107 15.5V16.5C118.265 16.5 119.945 16.0193 121.021 14.9436L120.313 14.2364ZM116.107 15.5H108.907V16.5H116.107V15.5ZM108.407 16V22H109.407V16H108.407ZM108.907 21.5H103.507V22.5H108.907V21.5ZM104.007 22V0.999999H103.007V22H104.007ZM117.207 7C117.207 6.32293 117.037 5.72329 116.611 5.29645C116.184 4.86961 115.584 4.7 114.907 4.7V5.7C115.43 5.7 115.73 5.83039 115.903 6.00355C116.077 6.17671 116.207 6.47707 116.207 7H117.207ZM114.907 4.7H108.907V5.7H114.907V4.7ZM108.407 5.2V11.8H109.407V5.2H108.407ZM108.907 12.3H114.907V11.3H108.907V12.3ZM114.907 12.3C115.584 12.3 116.184 12.1304 116.611 11.7036C117.037 11.2767 117.207 10.6771 117.207 10H116.207C116.207 10.5229 116.077 10.8233 115.903 10.9964C115.73 11.1696 115.43 11.3 114.907 11.3V12.3ZM117.207 10V7H116.207V10H117.207Z" fill="#FFE227"/>
</svg>
